<?xml version="1.0" encoding="utf-8"?>
<!-- Generator: Adobe Illustrator 16.2.1, SVG Export Plug-In . SVG Version: 6.00 Build 0)  -->
<!DOCTYPE svg PUBLIC "-//W3C//DTD SVG 1.1//EN" "http://www.w3.org/Graphics/SVG/1.1/DTD/svg11.dtd">
<svg version="1.1" id="Layer_1" xmlns="http://www.w3.org/2000/svg" xmlns:xlink="http://www.w3.org/1999/xlink" x="0px" y="0px"
	 width="1190.55px" height="841.89px" viewBox="0 0 1190.55 841.89" enable-background="new 0 0 1190.55 841.89"
	 xml:space="preserve">
<g>
	<path fill="#33AAAE" d="M740.96,324.084c0,0-4.709,13.786-18.535,34.445c-43.84,61.035-123.136,85.432-193.026,60.349
		c-64.999-23.331-91.485-69.307-105.794-118.62c15.678,12.531,36.931,21.873,56.44,18.078c0,0,39.694,73.951,113.351,79.114
		C677.004,403.312,729.52,344.531,740.96,324.084z"/>
	<path fill="#0B3A8A" d="M474.1,220.227c23.185-63.699,92.362-96.849,156.059-73.663c32.375,11.784,59.953,38.434,73.645,71.714
		c25.818,2.565,37.917,13.457,48.186,26.101c-8.32-76.189-60.264-121.021-108.608-138.656
		c-92.249-33.655-183.148,14.229-214.218,99.589c-8.26,22.69-11.002,50.099-9.405,72.724c5.963-2.563,24.055-11.948,47.732-29.095
		C468.668,240.612,471.108,228.449,474.1,220.227z"/>
	<path fill="#33AAAE" d="M615.793,255.2c0,0,25.573-6.102,36.912-13.659c11.331-7.559,32.362-14.935,45.045-14.241
		c12.601,0.69,32.84,6.975,45.918,24.119c0,0-34.294,13.185-70.622,46.208c-27.149,24.687-56.093,26.572-68.296,26.452
		c-14.27-0.135-31.39-0.584-46.501-7.851c0,0,2.013-13.661,28.325-11.333c26.311,2.322,37.168-2.669,46.178-6.737
		c9.011-4.073,31.284-19.418,31.864-26.688c0.584-7.267-6.103-10.749-13.659-6.866C645.528,267.403,622.186,275.542,615.793,255.2z"
		/>
	<path fill="#0B3A8A" d="M550.831,282.165c0,0-25.572,6.106-36.909,13.661c-11.338,7.559-32.365,14.935-45.049,14.241
		c-12.6-0.69-32.841-6.972-45.917-24.124c0,0,34.296-13.189,70.62-46.208c27.154-24.679,56.093-26.566,68.299-26.45
		c14.269,0.141,31.388,0.586,46.502,7.853c0,0-2.014,13.659-28.325,11.333c-26.315-2.322-37.169,2.669-46.179,6.737
		c-9.011,4.07-31.289,19.418-31.869,26.683c-0.579,7.269,6.104,10.754,13.664,6.864
		C521.095,269.964,544.435,261.823,550.831,282.165z"/>
	<radialGradient id="SVGID_1_" cx="578.6611" cy="265.3809" r="27.8941" gradientUnits="userSpaceOnUse">
		<stop  offset="0" style="stop-color:#FC4D32"/>
		<stop  offset="0.226" style="stop-color:#D9301D"/>
		<stop  offset="0.6673" style="stop-color:#990C06"/>
		<stop  offset="0.8752" style="stop-color:#800000"/>
	</radialGradient>
	<path fill="url(#SVGID_1_)" d="M579.13,295.592c0,0,17.726-18.019,22.378-24.121c4.653-6.098,8.138-16.271,0.292-23.825
		c-9.493-9.141-22.67,0-22.67,0l-0.301-0.196c0,0-12.877-8.945-22.369,0.196c-7.846,7.554-4.36,17.727,0.292,23.825
		c4.652,6.102,22.023,23.764,22.023,23.764L579.13,295.592z"/>
</g>
<g>
	<g>
		<path d="M292.077,564.35c5.079,2.557,8.947,5.863,11.606,9.923c2.563,3.868,4.272,8.382,5.126,13.541
			c0.76,3.535,1.14,9.169,1.14,16.905h-55.807c0.237,7.808,2.061,14.071,5.473,18.787c3.413,4.718,8.696,7.076,15.85,7.076
			c6.682,0,12.015-2.229,15.995-6.692c2.226-2.59,3.805-5.59,4.734-8.996h12.681c-0.335,2.818-1.444,5.957-3.331,9.421
			c-1.887,3.462-3.993,6.292-6.313,8.488c-3.888,3.822-8.7,6.4-14.435,7.737c-3.082,0.765-6.564,1.146-10.45,1.146
			c-9.493,0-17.539-3.475-24.136-10.424c-6.599-6.948-9.895-16.68-9.895-29.192c0-12.323,3.32-22.328,9.968-30.02
			c6.644-7.689,15.329-11.533,26.059-11.533C281.753,560.518,286.998,561.797,292.077,564.35z M296.696,594.475
			c-0.523-5.587-1.73-10.052-3.623-13.397c-3.507-6.206-9.354-9.312-17.547-9.312c-5.872,0-10.797,2.139-14.776,6.413
			c-3.978,4.274-6.086,9.707-6.323,16.297H296.696z"/>
		<path d="M334.654,591.467h35.962v13.252h-35.962V591.467z"/>
		<path d="M440.047,533.366h25.001L429.73,599.37v39.594h-22.065V599.37l-36.536-66.004h26.004l21.924,45.994L440.047,533.366z"/>
		<path d="M494.386,533.366h24.967l37.361,105.598h-23.929l-6.966-21.707H486.93l-7.158,21.707h-23.08L494.386,533.366z
			 M492.932,599.06h27.044l-13.338-41.552L492.932,599.06z"/>
		<path d="M637.819,536.088c3.889,1.673,7.185,4.132,9.885,7.379c2.236,2.676,4.005,5.637,5.31,8.884
			c1.303,3.248,1.957,6.948,1.957,11.104c0,5.014-1.267,9.945-3.797,14.794c-2.533,4.849-6.711,8.273-12.538,10.281
			c4.871,1.958,8.322,4.739,10.353,8.345c2.03,3.606,3.045,9.11,3.045,16.514v7.093c0,4.823,0.192,8.096,0.582,9.814
			c0.582,2.723,1.94,4.729,4.074,6.017v2.651h-24.357c-0.67-2.339-1.146-4.226-1.434-5.659c-0.572-2.961-0.885-5.994-0.932-9.099
			l-0.144-9.814c-0.09-6.733-1.254-11.223-3.49-13.469c-2.235-2.245-6.427-3.366-12.569-3.366h-21.551v41.407h-21.564V533.366
			h50.509C628.376,533.509,633.931,534.416,637.819,536.088z M592.213,551.706v28.369h23.746c4.717,0,8.255-0.572,10.613-1.72
			c4.175-2.006,6.26-5.97,6.26-11.893c0-6.398-2.018-10.697-6.056-12.895c-2.267-1.242-5.669-1.862-10.205-1.862H592.213z"/>
		<path d="M737.98,535.657c7.407,2.437,13.405,6.903,17.996,13.397c3.681,5.255,6.188,10.938,7.528,17.051
			c1.338,6.115,2.008,11.941,2.008,17.48c0,14.042-2.821,25.935-8.462,35.678c-7.646,13.134-19.452,19.7-35.417,19.7h-45.53V533.366
			h45.53C728.182,533.462,733.631,534.226,737.98,535.657z M697.525,551.706v68.918h20.377c10.429,0,17.699-5.134,21.814-15.402
			c2.246-5.635,3.371-12.346,3.371-20.131c0-10.747-1.687-18.997-5.059-24.753c-3.372-5.755-10.08-8.632-20.127-8.632H697.525z"/>
		<path d="M802.191,638.964h-21.924V533.366h21.924V638.964z"/>
		<path d="M892.875,533.366h31.751v105.598h-20.562v-71.427c0-2.053,0.022-4.93,0.071-8.633c0.047-3.7,0.071-6.554,0.071-8.559
			l-20.01,88.618h-21.446l-19.869-88.618c0,2.005,0.024,4.858,0.073,8.559c0.047,3.703,0.071,6.58,0.071,8.633v71.427h-20.562
			V533.366h32.109l19.222,83.03L892.875,533.366z"/>
	</g>
	<g>
		<path fill="#0B3A8A" d="M240.101,482.95v-4.742h21.013v4.742h-7.687v20.905h-5.639V482.95H240.101z"/>
		<path fill="#0B3A8A" d="M260.252,500.083c0.071-1.364,1.042-2.034,2.908-2.01c1.724,0.022,2.646,0.634,2.765,1.832v2.047
			c-0.071,1.292-1.029,1.928-2.874,1.903c-1.844-0.022-2.777-0.719-2.8-2.083V500.083z"/>
		<path fill="#0B3A8A" d="M286.509,485.052c-0.335-0.539-0.753-1.011-1.258-1.419c-0.502-0.406-1.07-0.726-1.706-0.952
			c-0.635-0.227-1.299-0.341-1.993-0.341c-1.271,0-2.347,0.245-3.233,0.735c-0.886,0.492-1.605,1.149-2.155,1.977
			c-0.551,0.825-0.952,1.767-1.205,2.818c-0.251,1.056-0.376,2.145-0.376,3.27c0,1.079,0.125,2.126,0.376,3.144
			c0.253,1.017,0.653,1.934,1.205,2.747c0.55,0.814,1.269,1.468,2.155,1.958s1.962,0.737,3.233,0.737
			c1.724,0,3.072-0.526,4.042-1.581c0.968-1.054,1.562-2.442,1.777-4.168h5.461c-0.145,1.605-0.517,3.054-1.115,4.348
			c-0.599,1.293-1.389,2.395-2.369,3.305c-0.982,0.911-2.132,1.604-3.449,2.083c-1.317,0.479-2.766,0.719-4.346,0.719
			c-1.965,0-3.731-0.341-5.298-1.024c-1.57-0.683-2.892-1.622-3.97-2.818c-1.079-1.197-1.904-2.604-2.479-4.222
			c-0.574-1.615-0.862-3.357-0.862-5.227c0-1.915,0.288-3.694,0.862-5.334c0.576-1.64,1.401-3.071,2.479-4.293
			c1.078-1.222,2.399-2.179,3.97-2.873c1.566-0.694,3.333-1.042,5.298-1.042c1.413,0,2.747,0.204,4.005,0.61
			c1.258,0.409,2.383,1.001,3.376,1.779c0.995,0.778,1.813,1.742,2.461,2.892c0.647,1.147,1.054,2.465,1.221,3.95h-5.459
			C287.061,486.184,286.844,485.591,286.509,485.052z"/>
		<path fill="#0B3A8A" d="M296.855,500.083c0.071-1.364,1.042-2.034,2.908-2.01c1.724,0.022,2.647,0.634,2.765,1.832v2.047
			c-0.071,1.292-1.029,1.928-2.874,1.903c-1.844-0.022-2.777-0.719-2.8-2.083V500.083z"/>
		<path fill="#0B3A8A" d="M329.434,478.208l9.59,25.647h-5.855l-1.94-5.711h-9.59l-2.012,5.711h-5.676l9.699-25.647H329.434z
			 M329.756,493.942l-3.233-9.411h-0.071l-3.339,9.411H329.756z"/>
		<path fill="#0B3A8A" d="M346.854,478.208l10.706,17.206h0.071v-17.206h5.279v25.647h-5.639l-10.668-17.17h-0.072v17.17h-5.279
			v-25.647H346.854z"/>
		<path fill="#0B3A8A" d="M373.508,478.208v10.633l10.021-10.633h7.04l-10.021,10.13l10.992,15.518h-7.077l-7.722-11.531
			l-3.233,3.27v8.262h-5.639v-25.647H373.508z"/>
		<path fill="#0B3A8A" d="M406.589,478.208l9.591,25.647h-5.855l-1.94-5.711h-9.59l-2.012,5.711h-5.675l9.699-25.647H406.589z
			 M406.912,493.942l-3.233-9.411h-0.071l-3.339,9.411H406.912z"/>
		<path fill="#0B3A8A" d="M432.236,478.208c1.15,0,2.185,0.187,3.108,0.558c0.921,0.372,1.711,0.881,2.369,1.525
			c0.66,0.647,1.162,1.396,1.51,2.247c0.347,0.85,0.521,1.765,0.521,2.747c0,1.509-0.316,2.813-0.952,3.915
			c-0.635,1.103-1.67,1.939-3.106,2.514v0.073c0.694,0.192,1.269,0.484,1.724,0.879c0.454,0.396,0.825,0.863,1.113,1.4
			c0.288,0.539,0.496,1.132,0.629,1.779c0.131,0.647,0.221,1.292,0.27,1.939c0.022,0.407,0.047,0.887,0.072,1.437
			c0.024,0.551,0.065,1.114,0.126,1.688c0.059,0.574,0.155,1.119,0.286,1.634c0.133,0.517,0.329,0.952,0.593,1.312h-5.639
			c-0.31-0.813-0.502-1.783-0.574-2.908c-0.073-1.126-0.18-2.204-0.325-3.233c-0.192-1.342-0.598-2.324-1.221-2.947
			c-0.623-0.62-1.64-0.933-3.053-0.933h-5.639v10.021h-5.639v-25.647H432.236z M430.224,489.811c1.292,0,2.263-0.288,2.91-0.862
			c0.646-0.573,0.97-1.509,0.97-2.802c0-1.243-0.325-2.148-0.97-2.712c-0.647-0.562-1.618-0.844-2.91-0.844h-6.178v7.22H430.224z"/>
		<path fill="#0B3A8A" d="M457.129,478.208l9.591,25.647h-5.855l-1.94-5.711h-9.59l-2.012,5.711h-5.676l9.699-25.647H457.129z
			 M457.452,493.942l-3.233-9.411h-0.071l-3.339,9.411H457.452z"/>
		<path fill="#0B3A8A" d="M491,478.208c1.222,0,2.336,0.108,3.341,0.323c1.005,0.216,1.869,0.569,2.585,1.06
			c0.719,0.492,1.276,1.144,1.671,1.959c0.396,0.814,0.592,1.819,0.592,3.017c0,1.292-0.292,2.37-0.878,3.232
			c-0.588,0.861-1.456,1.568-2.606,2.12c1.581,0.455,2.761,1.252,3.539,2.39c0.778,1.137,1.167,2.508,1.167,4.11
			c0,1.295-0.251,2.414-0.754,3.36c-0.502,0.945-1.18,1.717-2.03,2.315c-0.85,0.601-1.82,1.042-2.908,1.329
			c-1.091,0.288-2.21,0.432-3.36,0.432h-12.427v-25.647H491z M490.283,488.589c1.005,0,1.832-0.238,2.478-0.719
			c0.647-0.478,0.97-1.256,0.97-2.334c0-0.599-0.108-1.089-0.322-1.473c-0.217-0.382-0.505-0.682-0.862-0.898
			c-0.359-0.215-0.774-0.363-1.239-0.449c-0.468-0.082-0.952-0.125-1.456-0.125h-5.279v5.998H490.283z M490.606,499.473
			c0.549,0,1.076-0.054,1.581-0.161c0.502-0.106,0.946-0.286,1.328-0.54c0.384-0.251,0.688-0.592,0.917-1.022
			c0.227-0.431,0.341-0.98,0.341-1.652c0-1.317-0.372-2.257-1.113-2.82c-0.743-0.562-1.724-0.844-2.945-0.844h-6.143v7.04H490.606z"
			/>
		<path fill="#0B3A8A" d="M523.076,501.898c-1.938,1.688-4.622,2.532-8.044,2.532c-3.474,0-6.162-0.839-8.065-2.516
			c-1.903-1.675-2.855-4.26-2.855-7.759v-15.948h5.639v15.948c0,0.696,0.06,1.379,0.18,2.049c0.121,0.67,0.372,1.264,0.756,1.778
			c0.382,0.515,0.915,0.934,1.597,1.256c0.682,0.323,1.599,0.486,2.749,0.486c2.011,0,3.4-0.449,4.166-1.348
			c0.766-0.898,1.15-2.304,1.15-4.222v-15.948h5.639v15.948C525.986,497.63,525.016,500.21,523.076,501.898z M513.773,471.132v4.203
			h-4.848v-4.203H513.773z M521.173,471.132v4.203h-4.849v-4.203H521.173z"/>
		<path fill="#0B3A8A" d="M528.069,478.208h6.323l5.998,10.13l5.963-10.13h6.286l-9.519,15.806v9.842h-5.641v-9.985L528.069,478.208
			z"/>
		<path fill="#0B3A8A" d="M573.651,501.898c-1.938,1.688-4.622,2.532-8.044,2.532c-3.474,0-6.162-0.839-8.065-2.516
			c-1.903-1.675-2.855-4.26-2.855-7.759v-15.948h5.639v15.948c0,0.696,0.059,1.379,0.18,2.049s0.372,1.264,0.756,1.778
			c0.382,0.515,0.915,0.934,1.597,1.256c0.682,0.323,1.599,0.486,2.749,0.486c2.012,0,3.4-0.449,4.166-1.348
			c0.766-0.898,1.15-2.304,1.15-4.222v-15.948h5.639v15.948C576.561,497.63,575.591,500.21,573.651,501.898z M564.349,471.132v4.203
			H559.5v-4.203H564.349z M571.748,471.132v4.203h-4.848v-4.203H571.748z"/>
		<path fill="#0B3A8A" d="M587.05,478.208v10.633l10.022-10.633h7.039l-10.021,10.13l10.992,15.518h-7.077l-7.722-11.531
			l-3.233,3.27v8.262h-5.639v-25.647H587.05z"/>
		<path fill="#0B3A8A" d="M611.655,497.534c0.311,0.599,0.726,1.083,1.24,1.454c0.515,0.372,1.119,0.647,1.813,0.827
			s1.413,0.268,2.156,0.268c0.503,0,1.042-0.041,1.615-0.124c0.574-0.084,1.113-0.245,1.616-0.486
			c0.504-0.239,0.923-0.568,1.258-0.986c0.335-0.419,0.502-0.952,0.502-1.6c0-0.694-0.22-1.256-0.663-1.688
			c-0.443-0.432-1.023-0.788-1.742-1.076s-1.534-0.54-2.442-0.756c-0.911-0.215-1.832-0.453-2.766-0.717
			c-0.96-0.239-1.894-0.533-2.802-0.881c-0.911-0.347-1.726-0.796-2.442-1.348c-0.72-0.549-1.302-1.239-1.742-2.064
			c-0.443-0.827-0.666-1.826-0.666-3c0-1.315,0.282-2.461,0.846-3.429c0.562-0.971,1.297-1.779,2.207-2.427
			c0.911-0.646,1.94-1.125,3.091-1.436c1.149-0.311,2.299-0.468,3.447-0.468c1.342,0,2.628,0.151,3.861,0.449
			c1.233,0.301,2.328,0.784,3.286,1.454c0.958,0.672,1.72,1.527,2.281,2.569c0.563,1.041,0.846,2.306,0.846,3.788h-5.461
			c-0.047-0.766-0.211-1.398-0.484-1.903c-0.275-0.502-0.642-0.896-1.097-1.185s-0.977-0.49-1.562-0.61s-1.228-0.18-1.922-0.18
			c-0.455,0-0.91,0.049-1.364,0.143c-0.455,0.097-0.867,0.264-1.239,0.505c-0.372,0.239-0.676,0.537-0.915,0.896
			c-0.241,0.359-0.359,0.814-0.359,1.366c0,0.502,0.094,0.909,0.286,1.222c0.191,0.31,0.569,0.598,1.131,0.861
			c0.564,0.264,1.342,0.527,2.337,0.79c0.992,0.264,2.291,0.599,3.896,1.005c0.478,0.097,1.144,0.27,1.993,0.521
			c0.85,0.251,1.695,0.653,2.532,1.202c0.838,0.552,1.562,1.289,2.173,2.21c0.611,0.923,0.917,2.102,0.917,3.539
			c0,1.173-0.229,2.263-0.682,3.268c-0.455,1.007-1.132,1.875-2.03,2.604c-0.898,0.73-2.012,1.299-3.341,1.707
			c-1.33,0.406-2.867,0.61-4.616,0.61c-1.413,0-2.783-0.175-4.112-0.521c-1.33-0.347-2.502-0.893-3.521-1.636
			c-1.017-0.741-1.825-1.687-2.424-2.837c-0.599-1.149-0.887-2.514-0.862-4.095h5.461
			C611.189,496.205,611.346,496.936,611.655,497.534z M614.026,506.227c0.264-1.054,1.389-1.568,3.376-1.544
			c1.82,0.022,2.706,0.49,2.659,1.4l-1.761,3.844c-0.263,0.98-1.215,1.467-2.854,1.454c-1.643-0.012-2.378-0.545-2.21-1.599
			L614.026,506.227z"/>
		<path fill="#0B3A8A" d="M649.84,478.208v4.742h-13.542v5.496h12.429v4.383h-12.429v6.286h13.828v4.74h-19.467v-25.647H649.84z"/>
		<path fill="#0B3A8A" d="M659.573,478.208v9.842h10.381v-9.842h5.639v25.647h-5.639v-11.063h-10.381v11.063h-5.639v-25.647H659.573
			z"/>
		<path fill="#0B3A8A" d="M680.552,472.498c0.071-1.366,1.042-2.036,2.908-2.012c1.724,0.022,2.646,0.633,2.768,1.832v2.047
			c-0.074,1.292-1.032,1.928-2.876,1.903c-1.844-0.022-2.777-0.717-2.8-2.084V472.498z M680.552,480.723
			c0.071-1.675,1.017-2.502,2.837-2.478c1.652,0.047,2.562,0.803,2.73,2.263l-0.037,20.904c-0.096,1.677-1.035,2.498-2.818,2.461
			c-1.785-0.036-2.689-0.892-2.712-2.568V480.723z"/>
		<path fill="#0B3A8A" d="M704.976,478.208c1.149,0,2.185,0.187,3.108,0.558c0.921,0.372,1.711,0.881,2.369,1.525
			c0.659,0.647,1.161,1.396,1.509,2.247c0.347,0.85,0.521,1.765,0.521,2.747c0,1.509-0.316,2.813-0.951,3.915
			c-0.636,1.103-1.671,1.939-3.106,2.514v0.073c0.694,0.192,1.269,0.484,1.724,0.879c0.453,0.396,0.825,0.863,1.113,1.4
			c0.287,0.539,0.496,1.132,0.629,1.779c0.131,0.647,0.221,1.292,0.27,1.939c0.022,0.407,0.047,0.887,0.071,1.437
			c0.024,0.551,0.065,1.114,0.127,1.688c0.059,0.574,0.155,1.119,0.285,1.634c0.133,0.517,0.329,0.952,0.593,1.312h-5.639
			c-0.311-0.813-0.503-1.783-0.574-2.908c-0.073-1.126-0.18-2.204-0.324-3.233c-0.192-1.342-0.599-2.324-1.222-2.947
			c-0.623-0.62-1.64-0.933-3.053-0.933h-5.639v10.021h-5.64v-25.647H704.976z M702.964,489.811c1.292,0,2.263-0.288,2.91-0.862
			c0.646-0.573,0.97-1.509,0.97-2.802c0-1.243-0.324-2.148-0.97-2.712c-0.647-0.562-1.618-0.844-2.91-0.844h-6.178v7.22H702.964z"/>
		<path fill="#0B3A8A" d="M739.135,478.208c1.221,0,2.336,0.108,3.341,0.323c1.005,0.216,1.868,0.569,2.585,1.06
			c0.719,0.492,1.277,1.144,1.671,1.959c0.396,0.814,0.593,1.819,0.593,3.017c0,1.292-0.293,2.37-0.879,3.232
			c-0.588,0.861-1.456,1.568-2.605,2.12c1.58,0.455,2.761,1.252,3.539,2.39c0.778,1.137,1.166,2.508,1.166,4.11
			c0,1.295-0.251,2.414-0.754,3.36c-0.502,0.945-1.18,1.717-2.029,2.315c-0.85,0.601-1.82,1.042-2.908,1.329
			c-1.091,0.288-2.21,0.432-3.359,0.432h-12.428v-25.647H739.135z M738.418,488.589c1.004,0,1.831-0.238,2.477-0.719
			c0.647-0.478,0.971-1.256,0.971-2.334c0-0.599-0.108-1.089-0.323-1.473c-0.216-0.382-0.504-0.682-0.861-0.898
			c-0.36-0.215-0.774-0.363-1.24-0.449c-0.468-0.082-0.951-0.125-1.456-0.125h-5.279v5.998H738.418z M738.74,499.473
			c0.549,0,1.076-0.054,1.58-0.161c0.503-0.106,0.946-0.286,1.328-0.54c0.384-0.251,0.688-0.592,0.917-1.022
			c0.227-0.431,0.341-0.98,0.341-1.652c0-1.317-0.371-2.257-1.113-2.82c-0.743-0.562-1.724-0.844-2.944-0.844h-6.144v7.04H738.74z"
			/>
		<path fill="#0B3A8A" d="M771.535,478.208v4.742h-13.543v5.496h12.43v4.383h-12.43v6.286h13.828v4.74h-19.467v-25.647H771.535z"/>
		<path fill="#0B3A8A" d="M781.269,478.208v20.907h12.501v4.74h-18.14v-25.647H781.269z"/>
		<path fill="#0B3A8A" d="M816.111,478.208v4.742h-13.542v5.496h12.43v4.383h-12.43v6.286h13.828v4.74h-19.467v-25.647H816.111z"/>
		<path fill="#0B3A8A" d="M831.27,478.208c1.652,0,3.189,0.264,4.615,0.791c1.424,0.526,2.657,1.317,3.701,2.371
			c1.041,1.054,1.854,2.371,2.442,3.951c0.586,1.581,0.878,3.436,0.878,5.567c0,1.867-0.239,3.593-0.717,5.173
			c-0.48,1.579-1.205,2.945-2.173,4.095c-0.97,1.148-2.182,2.053-3.629,2.713c-1.448,0.657-3.155,0.986-5.118,0.986h-11.063v-25.647
			H831.27z M830.873,499.115c0.815,0,1.605-0.133,2.371-0.396s1.448-0.7,2.049-1.311c0.598-0.611,1.076-1.407,1.436-2.388
			c0.359-0.982,0.539-2.18,0.539-3.593c0-1.295-0.125-2.461-0.378-3.502c-0.251-1.042-0.664-1.935-1.237-2.678
			c-0.576-0.741-1.336-1.31-2.281-1.705c-0.948-0.395-2.114-0.593-3.503-0.593h-4.023v16.165H830.873z"/>
		<path fill="#0B3A8A" d="M846.823,472.498c0.071-1.366,1.042-2.036,2.908-2.012c1.724,0.022,2.646,0.633,2.768,1.832v2.047
			c-0.073,1.292-1.031,1.928-2.876,1.903c-1.844-0.022-2.777-0.717-2.8-2.084V472.498z M846.823,480.723
			c0.071-1.675,1.017-2.502,2.837-2.478c1.652,0.047,2.562,0.803,2.73,2.263l-0.037,20.904c-0.096,1.677-1.035,2.498-2.818,2.461
			c-1.785-0.036-2.689-0.892-2.712-2.568V480.723z"/>
		<path fill="#0B3A8A" d="M854.653,478.208h6.323l5.998,10.13l5.963-10.13h6.286l-9.519,15.806v9.842h-5.641v-9.985L854.653,478.208
			z"/>
		<path fill="#0B3A8A" d="M900.56,478.208v4.742h-13.542v5.496h12.429v4.383h-12.429v6.286h13.828v4.74h-19.467v-25.647H900.56z"/>
		<path fill="#0B3A8A" d="M908.964,497.534c0.311,0.599,0.725,1.083,1.239,1.454c0.515,0.372,1.119,0.647,1.813,0.827
			s1.413,0.268,2.157,0.268c0.502,0,1.041-0.041,1.615-0.124c0.574-0.084,1.113-0.245,1.615-0.486
			c0.504-0.239,0.923-0.568,1.258-0.986c0.335-0.419,0.503-0.952,0.503-1.6c0-0.694-0.221-1.256-0.664-1.688
			c-0.443-0.432-1.023-0.788-1.742-1.076s-1.533-0.54-2.442-0.756c-0.911-0.215-1.832-0.453-2.766-0.717
			c-0.959-0.239-1.893-0.533-2.802-0.881c-0.911-0.347-1.726-0.796-2.442-1.348c-0.719-0.549-1.301-1.239-1.742-2.064
			c-0.443-0.827-0.666-1.826-0.666-3c0-1.315,0.282-2.461,0.846-3.429c0.562-0.971,1.297-1.779,2.208-2.427
			c0.911-0.646,1.94-1.125,3.09-1.436s2.3-0.468,3.447-0.468c1.342,0,2.628,0.151,3.862,0.449c1.233,0.301,2.328,0.784,3.285,1.454
			c0.958,0.672,1.72,1.527,2.281,2.569c0.564,1.041,0.846,2.306,0.846,3.788h-5.461c-0.047-0.766-0.21-1.398-0.484-1.903
			c-0.275-0.502-0.641-0.896-1.096-1.185c-0.456-0.288-0.977-0.49-1.562-0.61s-1.228-0.18-1.922-0.18
			c-0.456,0-0.911,0.049-1.364,0.143c-0.456,0.097-0.868,0.264-1.24,0.505c-0.371,0.239-0.676,0.537-0.915,0.896
			c-0.24,0.359-0.359,0.814-0.359,1.366c0,0.502,0.095,0.909,0.286,1.222c0.192,0.31,0.57,0.598,1.132,0.861
			c0.563,0.264,1.342,0.527,2.336,0.79c0.993,0.264,2.292,0.599,3.896,1.005c0.479,0.097,1.145,0.27,1.994,0.521
			c0.85,0.251,1.694,0.653,2.532,1.202c0.837,0.552,1.562,1.289,2.173,2.21c0.61,0.923,0.917,2.102,0.917,3.539
			c0,1.173-0.229,2.263-0.683,3.268c-0.455,1.007-1.131,1.875-2.029,2.604c-0.899,0.73-2.012,1.299-3.342,1.707
			c-1.329,0.406-2.867,0.61-4.615,0.61c-1.413,0-2.783-0.175-4.113-0.521c-1.329-0.347-2.502-0.893-3.521-1.636
			c-1.018-0.741-1.826-1.687-2.425-2.837c-0.598-1.149-0.886-2.514-0.861-4.095h5.461
			C908.498,496.205,908.653,496.936,908.964,497.534z"/>
		<path fill="#0B3A8A" d="M927.967,472.498c0.071-1.366,1.042-2.036,2.908-2.012c1.724,0.022,2.646,0.633,2.768,1.832v2.047
			c-0.074,1.292-1.031,1.928-2.876,1.903c-1.844-0.022-2.777-0.717-2.8-2.084V472.498z M927.967,480.723
			c0.071-1.675,1.018-2.502,2.837-2.478c1.652,0.047,2.563,0.803,2.73,2.263l-0.037,20.904c-0.096,1.677-1.035,2.498-2.818,2.461
			c-1.784-0.036-2.689-0.892-2.712-2.568V480.723z"/>
	</g>
	<g>
		<path fill="#0B3A8A" d="M433.543,669.481c0.96,0,1.991,0.01,3.098,0.03c1.105,0.022,2.199,0.084,3.286,0.188
			c1.085,0.104,2.096,0.261,3.035,0.47c0.939,0.208,1.742,0.522,2.41,0.939c1.46,0.876,2.7,2.085,3.723,3.629
			c1.021,1.544,1.534,3.441,1.534,5.696c0,2.377-0.574,4.434-1.722,6.163c-1.147,1.732-2.786,3.015-4.912,3.85v0.125
			c2.753,0.584,4.858,1.836,6.321,3.756c1.458,1.919,2.189,4.254,2.189,7.009c0,1.626-0.292,3.213-0.876,4.757
			c-0.584,1.544-1.45,2.91-2.598,4.099c-1.147,1.188-2.565,2.148-4.254,2.877c-1.691,0.731-3.642,1.097-5.853,1.097h-21.591v-44.685
			H433.543z M435.17,688.695c3.38,0,5.808-0.595,7.291-1.785c1.481-1.188,2.222-2.972,2.222-5.351c0-1.585-0.251-2.837-0.752-3.754
			c-0.5-0.919-1.188-1.628-2.064-2.128s-1.889-0.823-3.037-0.97c-1.147-0.147-2.367-0.221-3.66-0.221h-11.892v14.208H435.17z
			 M438.175,709.159c2.628,0,4.683-0.709,6.164-2.129c1.48-1.417,2.222-3.378,2.222-5.881c0-1.461-0.272-2.67-0.813-3.632
			c-0.543-0.958-1.264-1.72-2.161-2.283s-1.93-0.96-3.096-1.188c-1.17-0.229-2.379-0.345-3.631-0.345h-13.581v15.458H438.175z"/>
		<path fill="#0B3A8A" d="M459.639,675.99v-6.509h5.32v6.509H459.639z M464.959,681.811v32.355h-5.32v-32.355H464.959z"/>
		<path fill="#0B3A8A" d="M478.853,669.481v44.685h-5.32v-44.685H478.853z"/>
		<path fill="#0B3A8A" d="M511.395,723.304c-2.42,2.628-6.217,3.941-11.39,3.941c-1.503,0-3.035-0.167-4.599-0.5
			c-1.566-0.335-2.984-0.877-4.256-1.628c-1.274-0.75-2.326-1.732-3.162-2.941c-0.835-1.211-1.292-2.691-1.376-4.443h5.32
			c0.041,0.96,0.343,1.774,0.906,2.442c0.564,0.666,1.252,1.209,2.065,1.626c0.815,0.416,1.701,0.721,2.661,0.908
			c0.958,0.188,1.877,0.282,2.753,0.282c1.752,0,3.233-0.305,4.444-0.909c1.209-0.604,2.21-1.439,3.004-2.504
			c0.792-1.062,1.366-2.347,1.72-3.848c0.355-1.503,0.533-3.148,0.533-4.944v-2.128h-0.125c-0.919,2.004-2.306,3.474-4.162,4.411
			c-1.856,0.939-3.829,1.409-5.915,1.409c-2.42,0-4.527-0.438-6.32-1.314c-1.795-0.877-3.296-2.055-4.505-3.535
			c-1.211-1.481-2.12-3.213-2.723-5.194c-0.606-1.98-0.909-4.078-0.909-6.29c0-1.92,0.251-3.891,0.751-5.914
			c0.5-2.024,1.333-3.858,2.504-5.508c1.166-1.646,2.71-3.005,4.63-4.068c1.919-1.062,4.276-1.595,7.072-1.595
			c2.044,0,3.921,0.449,5.633,1.346s3.045,2.242,4.005,4.035h0.063v-4.63h5.006v29.601
			C515.023,716.711,513.814,720.675,511.395,723.304z M504.604,708.752c1.231-0.729,2.222-1.688,2.974-2.879
			c0.752-1.188,1.303-2.535,1.658-4.036c0.354-1.503,0.531-3.004,0.531-4.505c0-1.42-0.167-2.816-0.5-4.195
			c-0.335-1.376-0.866-2.616-1.595-3.723c-0.731-1.104-1.681-1.991-2.849-2.659s-2.585-1.003-4.254-1.003
			c-1.711,0-3.172,0.325-4.381,0.971c-1.211,0.647-2.202,1.513-2.974,2.598c-0.772,1.086-1.335,2.336-1.689,3.756
			c-0.355,1.417-0.533,2.899-0.533,4.441c0,1.463,0.145,2.923,0.439,4.383c0.29,1.46,0.791,2.784,1.501,3.973
			c0.708,1.19,1.648,2.15,2.816,2.879c1.168,0.731,2.628,1.095,4.38,1.095C501.881,709.847,503.372,709.483,504.604,708.752z"/>
		<path fill="#0B3A8A" d="M523.346,675.99v-6.509h5.32v6.509H523.346z M528.666,681.811v32.355h-5.32v-32.355H528.666z"/>
		<path fill="#0B3A8A" d="M577.574,675.584c-1.981-1.44-4.516-2.159-7.604-2.159c-1.252,0-2.481,0.125-3.692,0.374
			c-1.211,0.251-2.283,0.668-3.223,1.252c-0.939,0.586-1.689,1.368-2.253,2.347c-0.563,0.982-0.845,2.201-0.845,3.662
			c0,1.376,0.406,2.493,1.221,3.349c0.813,0.854,1.897,1.555,3.253,2.096c1.356,0.543,2.89,0.992,4.601,1.346
			c1.709,0.355,3.452,0.741,5.224,1.158c1.773,0.416,3.515,0.906,5.226,1.471c1.712,0.563,3.243,1.325,4.6,2.285
			c1.356,0.96,2.442,2.169,3.255,3.629s1.219,3.296,1.219,5.508c0,2.377-0.531,4.411-1.595,6.101
			c-1.064,1.69-2.43,3.067-4.099,4.131c-1.668,1.064-3.538,1.837-5.602,2.316c-2.065,0.478-4.119,0.719-6.164,0.719
			c-2.504,0-4.873-0.312-7.103-0.939c-2.232-0.625-4.193-1.572-5.884-2.847c-1.689-1.272-3.024-2.9-4.005-4.881
			c-0.98-1.981-1.471-4.328-1.471-7.042h5.633c0,1.879,0.363,3.496,1.095,4.851c0.729,1.355,1.689,2.473,2.879,3.349
			c1.189,0.877,2.576,1.524,4.162,1.94c1.585,0.417,3.21,0.625,4.881,0.625c1.333,0,2.679-0.124,4.035-0.376
			c1.356-0.249,2.576-0.678,3.662-1.282c1.084-0.604,1.96-1.428,2.628-2.471c0.667-1.044,1-2.38,1-4.008
			c0-1.541-0.406-2.793-1.219-3.753c-0.815-0.96-1.899-1.742-3.255-2.347c-1.356-0.604-2.89-1.097-4.599-1.471
			c-1.711-0.376-3.454-0.762-5.226-1.158c-1.772-0.396-3.515-0.855-5.226-1.378c-1.711-0.521-3.243-1.209-4.599-2.065
			c-1.356-0.854-2.441-1.96-3.253-3.316c-0.815-1.356-1.221-3.055-1.221-5.1c0-2.255,0.459-4.203,1.376-5.853
			c0.917-1.646,2.139-3.005,3.662-4.066c1.521-1.064,3.253-1.856,5.193-2.38c1.94-0.521,3.934-0.782,5.978-0.782
			c2.294,0,4.422,0.272,6.382,0.813c1.962,0.543,3.682,1.398,5.165,2.567c1.48,1.168,2.649,2.638,3.504,4.411
			c0.854,1.774,1.323,3.891,1.407,6.354h-5.633C580.713,679.35,579.557,677.023,577.574,675.584z"/>
		<path fill="#0B3A8A" d="M595.191,675.99v-6.509h5.32v6.509H595.191z M600.511,681.811v32.355h-5.32v-32.355H600.511z"/>
		<path fill="#0B3A8A" d="M612.84,706.937c0.501,0.815,1.158,1.463,1.971,1.94c0.815,0.479,1.732,0.825,2.756,1.033
			c1.021,0.208,2.074,0.312,3.159,0.312c0.835,0,1.711-0.062,2.628-0.188c0.917-0.125,1.763-0.354,2.535-0.688
			c0.771-0.333,1.408-0.823,1.909-1.471c0.5-0.646,0.751-1.47,0.751-2.471c0-1.379-0.522-2.42-1.564-3.131
			c-1.043-0.709-2.348-1.282-3.912-1.72c-1.564-0.439-3.264-0.835-5.1-1.19c-1.836-0.354-3.537-0.854-5.102-1.501
			s-2.867-1.555-3.911-2.723s-1.564-2.794-1.564-4.881c0-1.628,0.365-3.024,1.095-4.193c0.73-1.168,1.668-2.117,2.816-2.849
			c1.147-0.729,2.44-1.272,3.88-1.626c1.44-0.355,2.869-0.532,4.287-0.532c1.836,0,3.524,0.157,5.071,0.47
			c1.541,0.312,2.908,0.855,4.099,1.627c1.188,0.772,2.136,1.813,2.847,3.129c0.709,1.313,1.127,2.951,1.252,4.912h-5.32
			c-0.084-1.042-0.355-1.908-0.812-2.596c-0.46-0.688-1.044-1.242-1.753-1.658c-0.71-0.417-1.492-0.722-2.347-0.909
			c-0.855-0.188-1.721-0.282-2.598-0.282c-0.792,0-1.597,0.063-2.409,0.188c-0.813,0.126-1.555,0.345-2.223,0.657
			c-0.667,0.312-1.211,0.731-1.627,1.252c-0.417,0.522-0.625,1.199-0.625,2.034c0,0.917,0.322,1.679,0.97,2.283
			c0.646,0.606,1.471,1.107,2.471,1.503c1.003,0.396,2.129,0.731,3.381,1.001c1.252,0.271,2.504,0.554,3.756,0.846
			c1.333,0.292,2.638,0.647,3.91,1.063c1.272,0.417,2.4,0.971,3.38,1.658c0.98,0.688,1.773,1.555,2.378,2.599
			c0.604,1.041,0.908,2.336,0.908,3.88c0,1.961-0.408,3.588-1.221,4.881c-0.813,1.293-1.877,2.337-3.192,3.129
			c-1.313,0.792-2.796,1.346-4.442,1.658c-1.649,0.312-3.285,0.47-4.913,0.47c-1.796,0-3.505-0.188-5.133-0.563
			c-1.627-0.376-3.065-0.99-4.317-1.847c-1.252-0.854-2.252-1.98-3.004-3.38c-0.752-1.396-1.168-3.098-1.252-5.1h5.32
			C612.068,705.134,612.34,706.124,612.84,706.937z"/>
		<path fill="#0B3A8A" d="M653.896,681.811v4.693h-6.447v20.09c0,0.625,0.054,1.125,0.157,1.501
			c0.104,0.376,0.303,0.668,0.595,0.876c0.292,0.211,0.698,0.346,1.219,0.406c0.523,0.063,1.201,0.095,2.034,0.095h2.442v4.694
			h-4.067c-1.377,0-2.558-0.094-3.537-0.281c-0.98-0.188-1.773-0.533-2.378-1.033c-0.606-0.501-1.054-1.209-1.346-2.129
			c-0.292-0.916-0.439-2.128-0.439-3.629v-20.59h-5.506v-4.693h5.506v-9.7h5.32v9.7H653.896z"/>
		<path fill="#0B3A8A" d="M682.682,712.1c-2.42,1.838-5.467,2.755-9.137,2.755c-2.588,0-4.83-0.419-6.728-1.252
			c-1.899-0.833-3.496-2.003-4.789-3.504c-1.293-1.504-2.263-3.297-2.91-5.382c-0.647-2.087-1.011-4.36-1.095-6.823
			c0-2.461,0.376-4.714,1.127-6.758c0.752-2.044,1.804-3.819,3.16-5.32c1.355-1.501,2.963-2.669,4.819-3.505
			c1.856-0.833,3.891-1.251,6.103-1.251c2.877,0,5.267,0.594,7.164,1.782c1.899,1.19,3.421,2.702,4.568,4.538
			c1.148,1.836,1.94,3.84,2.379,6.009c0.438,2.169,0.615,4.235,0.531,6.196h-24.219c-0.041,1.417,0.124,2.763,0.5,4.035
			c0.376,1.274,0.98,2.399,1.815,3.38c0.833,0.98,1.897,1.763,3.192,2.347c1.293,0.584,2.816,0.876,4.568,0.876
			c2.253,0,4.099-0.521,5.539-1.564c1.439-1.041,2.387-2.628,2.847-4.756h5.257C686.666,707.531,685.102,710.266,682.682,712.1z
			 M681.399,691.323c-0.48-1.127-1.128-2.097-1.94-2.91c-0.814-0.814-1.774-1.46-2.88-1.939c-1.104-0.48-2.326-0.722-3.661-0.722
			c-1.377,0-2.618,0.241-3.724,0.722c-1.104,0.479-2.055,1.137-2.847,1.971c-0.792,0.835-1.419,1.805-1.877,2.91
			c-0.461,1.106-0.73,2.285-0.814,3.535h18.586C682.159,693.64,681.877,692.449,681.399,691.323z"/>
		<path fill="#0B3A8A" d="M698.389,681.811v4.757h0.125c2.42-3.672,5.904-5.508,10.452-5.508c2.001,0,3.817,0.418,5.444,1.251
			c1.626,0.836,2.773,2.253,3.441,4.257c1.085-1.753,2.515-3.108,4.287-4.068s3.723-1.439,5.851-1.439
			c1.628,0,3.099,0.177,4.414,0.532c1.312,0.354,2.44,0.907,3.38,1.658c0.938,0.75,1.666,1.72,2.189,2.911
			c0.521,1.188,0.781,2.618,0.781,4.286v23.719h-5.319v-21.217c0-1.001-0.084-1.94-0.249-2.816c-0.168-0.876-0.48-1.636-0.939-2.283
			c-0.46-0.647-1.095-1.158-1.908-1.533c-0.814-0.376-1.868-0.564-3.161-0.564c-2.628,0-4.693,0.752-6.196,2.255
			c-1.501,1.501-2.253,3.505-2.253,6.007v20.152h-5.319v-21.217c0-1.042-0.095-2.001-0.282-2.878
			c-0.188-0.876-0.511-1.638-0.97-2.285c-0.46-0.646-1.074-1.146-1.847-1.501c-0.771-0.354-1.763-0.533-2.972-0.533
			c-1.544,0-2.869,0.314-3.974,0.939c-1.107,0.625-2.004,1.377-2.692,2.253c-0.688,0.876-1.188,1.785-1.501,2.723
			c-0.312,0.939-0.47,1.722-0.47,2.347v20.152h-5.32v-32.355H698.389z"/>
		<path fill="#0B3A8A" d="M747.079,675.99v-6.509h5.319v6.509H747.079z M752.398,681.811v32.355h-5.319v-32.355H752.398z"/>
	</g>
</g>
</svg>
